<svg width="51" height="50" viewBox="0 0 51 50" fill="none" xmlns="http://www.w3.org/2000/svg">
<g clip-path="url(#clip0_469_964)">
<path d="M25.405 -0.252441C18.5469 -0.252441 17.6862 -0.222454 14.9926 -0.0998736C12.3042 0.0232325 10.4692 0.448842 8.86356 1.07332C7.20268 1.71831 5.7938 2.5811 4.39018 3.98525C2.98551 5.38887 2.12272 6.79775 1.47562 8.4581C0.849569 10.0643 0.423433 11.8998 0.302432 14.5871C0.181956 17.2807 0.150391 18.1419 0.150391 25.0001C0.150391 31.8582 0.180905 32.7163 0.302958 35.4099C0.426591 38.0983 0.852201 39.9333 1.47615 41.5389C2.12167 43.1998 2.98446 44.6087 4.38861 46.0123C5.7917 47.417 7.20058 48.2819 8.86041 48.9269C10.4671 49.5513 12.3026 49.9769 14.9905 50.1C17.6841 50.2226 18.5442 50.2526 25.4019 50.2526C32.2606 50.2526 33.1186 50.2226 35.8122 50.1C38.5006 49.9769 40.3377 49.5513 41.9444 48.9269C43.6047 48.2819 45.0115 47.417 46.4146 46.0123C47.8193 44.6087 48.6821 43.1998 49.3292 41.5394C49.9499 39.9333 50.3761 38.0977 50.5023 35.4104C50.6233 32.7168 50.6549 31.8582 50.6549 25.0001C50.6549 18.1419 50.6233 17.2812 50.5023 14.5876C50.3761 11.8993 49.9499 10.0643 49.3292 8.45863C48.6821 6.79775 47.8193 5.38887 46.4146 3.98525C45.0099 2.58058 43.6053 1.71778 41.9428 1.07332C40.3329 0.448842 38.4969 0.0232325 35.8085 -0.0998736C33.1149 -0.222454 32.2574 -0.252441 25.3971 -0.252441H25.405ZM23.1397 4.29827C23.812 4.29722 24.5622 4.29827 25.405 4.29827C32.1474 4.29827 32.9466 4.32247 35.6091 4.44348C38.0713 4.55606 39.4075 4.96747 40.2977 5.31311C41.4761 5.77081 42.3163 6.31795 43.1996 7.20179C44.0835 8.08563 44.6306 8.92738 45.0894 10.1058C45.435 10.9949 45.8469 12.3312 45.959 14.7933C46.08 17.4554 46.1063 18.255 46.1063 24.9943C46.1063 31.7336 46.08 32.5332 45.959 35.1953C45.8464 37.6574 45.435 38.9937 45.0894 39.8828C44.6317 41.0612 44.0835 41.9003 43.1996 42.7836C42.3158 43.6675 41.4767 44.2146 40.2977 44.6723C39.4086 45.0195 38.0713 45.4299 35.6091 45.5425C32.9471 45.6635 32.1474 45.6898 25.405 45.6898C18.6621 45.6898 17.8629 45.6635 15.2009 45.5425C12.7388 45.4288 11.4025 45.0174 10.5118 44.6718C9.33337 44.2141 8.49161 43.667 7.60778 42.7831C6.72394 41.8993 6.1768 41.0596 5.71805 39.8807C5.3724 38.9916 4.96047 37.6553 4.84841 35.1932C4.72741 32.5311 4.70321 31.7315 4.70321 24.988C4.70321 18.2445 4.72741 17.4491 4.84841 14.787C4.961 12.3249 5.3724 10.9886 5.71805 10.0985C6.17575 8.92001 6.72394 8.07826 7.60778 7.19442C8.49161 6.31058 9.33337 5.76345 10.5118 5.30469C11.402 4.95747 12.7388 4.54712 15.2009 4.43401C17.5304 4.32879 18.4332 4.29722 23.1397 4.29196V4.29827ZM38.8846 8.49124C37.2116 8.49124 35.8543 9.84699 35.8543 11.5205C35.8543 13.1935 37.2116 14.5508 38.8846 14.5508C40.5576 14.5508 41.9149 13.1935 41.9149 11.5205C41.9149 9.84752 40.5576 8.49019 38.8846 8.49019V8.49124ZM25.405 12.0319C18.2433 12.0319 12.4368 17.8384 12.4368 25.0001C12.4368 32.1618 18.2433 37.9657 25.405 37.9657C32.5667 37.9657 38.3711 32.1618 38.3711 25.0001C38.3711 17.8384 32.5667 12.0319 25.405 12.0319ZM25.405 16.5826C30.0536 16.5826 33.8225 20.351 33.8225 25.0001C33.8225 29.6487 30.0536 33.4176 25.405 33.4176C20.7559 33.4176 16.9875 29.6487 16.9875 25.0001C16.9875 20.351 20.7559 16.5826 25.405 16.5826Z" fill="#FAFAFA"/>
</g>
<defs>
<clipPath id="clip0_469_964">
<rect width="50" height="50" fill="white" transform="translate(0.75)"/>
</clipPath>
</defs>
</svg>
