<svg width="44" height="50" viewBox="0 0 44 50" fill="none" xmlns="http://www.w3.org/2000/svg">
<g clip-path="url(#clip0_469_961)">
<path d="M43.75 20.499C39.4507 20.5093 35.2568 19.1685 31.7608 16.666V34.1191C31.7596 37.3517 30.7715 40.5068 28.9288 43.1626C27.086 45.8184 24.4764 47.8483 21.4488 48.981C18.4212 50.1136 15.12 50.295 11.9866 49.5008C8.85318 48.7066 6.0369 46.9747 3.91433 44.5367C1.79177 42.0987 0.464105 39.0708 0.10886 35.8578C-0.246386 32.6449 0.387724 29.4001 1.9264 26.5573C3.46507 23.7145 5.83497 21.4091 8.71921 19.9496C11.6034 18.49 14.8645 17.9458 18.0664 18.3896V27.168C16.6012 26.7071 15.0279 26.721 13.571 27.2076C12.1142 27.6943 10.8484 28.6288 9.95439 29.8778C9.06038 31.1268 8.58387 32.6263 8.59291 34.1622C8.60196 35.6982 9.0961 37.192 10.0048 38.4303C10.9134 39.6687 12.1902 40.5882 13.6526 41.0577C15.1151 41.5272 16.6885 41.5225 18.1482 41.0444C19.6078 40.5663 20.8791 39.6392 21.7804 38.3955C22.6817 37.1518 23.167 35.6551 23.167 34.1191V0H31.7608C31.7548 0.725723 31.8156 1.45046 31.9424 2.16504C32.241 3.76023 32.8619 5.27774 33.7671 6.62474C34.6724 7.97174 35.8429 9.11991 37.207 9.99902C39.1479 11.2823 41.4233 11.9663 43.75 11.9658V20.499Z" fill="#FAFAFA"/>
</g>
<defs>
<clipPath id="clip0_469_961">
<rect width="43.75" height="50" fill="white"/>
</clipPath>
</defs>
</svg>
