<svg width="100" height="70" viewBox="0 0 100 70" fill="none" xmlns="http://www.w3.org/2000/svg">
<path d="M28.0275 35C28.0254 33.781 28.2659 32.5736 28.7353 31.4469C29.2047 30.3201 29.8937 29.2961 30.7629 28.4334C31.6321 27.5708 32.6644 26.8864 33.8009 26.4194C34.9373 25.9525 36.1555 25.7121 37.3858 25.7121H37.3328C38.5631 25.7121 39.7813 25.9525 40.9178 26.4194C42.0542 26.8864 43.0866 27.5708 43.9558 28.4334C44.825 29.2961 45.514 30.3201 45.9833 31.4469C46.4527 32.5736 46.6932 33.781 46.6911 35C46.6911 37.4591 45.7052 39.8175 43.9502 41.5564C42.1951 43.2952 39.8148 44.2721 37.3328 44.2721H37.3858C34.9038 44.2721 32.5235 43.2952 30.7685 41.5564C29.0135 39.8175 28.0275 37.4591 28.0275 35ZM71.8108 18.56H89.2351C91.7171 18.56 94.0974 17.5831 95.8524 15.8442C97.6075 14.1054 98.5934 11.747 98.5934 9.28786C98.5955 8.0689 98.355 6.8615 97.8856 5.73474C97.4163 4.60798 96.7273 3.58397 95.8581 2.7213C94.9889 1.85864 93.9565 1.17425 92.8201 0.707301C91.6836 0.240349 90.4654 -1.75681e-06 89.2351 0L71.8108 0C70.5805 -1.75681e-06 69.3623 0.240349 68.2258 0.707301C67.0894 1.17425 66.0571 1.85864 65.1879 2.7213C64.3186 3.58397 63.6297 4.60798 63.1603 5.73474C62.6909 6.8615 62.4504 8.0689 62.4525 9.28786C62.4525 11.747 63.4384 14.1054 65.1935 15.8442C66.9485 17.5831 69.3288 18.56 71.8108 18.56ZM11.9643 69.9843H45.8067C48.2887 69.9843 50.669 69.0074 52.424 67.2685C54.179 65.5297 55.165 63.1713 55.165 60.7121C55.1671 59.4932 54.9266 58.2858 54.4572 57.159C53.9878 56.0323 53.2988 55.0083 52.4296 54.1456C51.5604 53.2829 50.5281 52.5985 49.3916 52.1316C48.2552 51.6646 47.037 51.4243 45.8067 51.4243H11.9643C10.734 51.4243 9.51577 51.6646 8.37933 52.1316C7.2429 52.5985 6.21054 53.2829 5.34133 54.1456C4.47213 55.0083 3.78313 56.0323 3.31377 57.159C2.8444 58.2858 2.60389 59.4932 2.60597 60.7121C2.60597 63.1713 3.59193 65.5297 5.34696 67.2685C7.10198 69.0074 9.4823 69.9843 11.9643 69.9843ZM56.4096 44.2721H59.7197L67.4521 25.7121H63.0298L58.3162 37.8861H58.2632L53.6291 25.7121H48.9155L56.4096 44.2721ZM73.5956 44.2721H77.7266V25.7121H73.5956V44.2721ZM85.3531 44.2721H98.5669V40.5097H89.484V36.7316H97.6136V32.9535H89.484V29.4903H98.0903V25.7121H85.3795L85.3531 44.2721ZM6.33447 18.5757H10.4655V3.62069H15.8146V0H0.985352V3.62069H6.33447V18.5757ZM21.6403 18.5757H25.7713V10.5472H33.7685V18.5757H37.8995V0H33.7685V6.92654H25.7449V0H21.6403V18.5757ZM43.487 18.5757H56.7274V14.7976H47.5915V11.0195H55.7211V7.24138H47.5915V3.77811H56.1977V0H43.487V18.5757ZM1.64737 44.2879H5.75189V30.0412H5.80485L10.5714 44.2879H13.6961L18.6215 30.0412H18.6745V44.2879H22.8055V25.7121H16.5825L12.2397 37.8336H12.1867L7.87035 25.7121H1.62089L1.64737 44.2879ZM61.0119 70H67.7169C69.0751 70.007 70.4261 69.8033 71.7208 69.3966C72.9426 69.0185 74.083 68.4188 75.0838 67.6282C76.057 66.8434 76.8466 65.8587 77.3982 64.7421C78.0095 63.5044 78.3214 62.1425 78.3092 60.7646C78.3523 59.273 78.0479 57.7916 77.4194 56.4355C76.8671 55.2925 76.0462 54.2974 75.0256 53.5337C73.9565 52.7744 72.7444 52.2355 71.4613 51.949C70.0633 51.603 68.6281 51.4268 67.1872 51.4243H60.9855L61.0119 70ZM65.1482 55.2024H67.5845C68.42 55.1994 69.252 55.3089 70.0578 55.5277C70.7986 55.7274 71.4954 56.0619 72.1127 56.5142C72.6992 56.9567 73.1742 57.5279 73.5003 58.1829C73.8641 58.9207 74.0456 59.7337 74.0299 60.5547C74.0526 61.471 73.8718 62.381 73.5003 63.2204C73.1836 63.9122 72.6975 64.5146 72.0862 64.973C71.4535 65.4328 70.7326 65.7596 69.9677 65.9333C69.0994 66.1315 68.2107 66.2283 67.3197 66.2219H65.1217L65.1482 55.2024ZM84.2885 70H91.9679C92.8099 69.9981 93.6493 69.9102 94.473 69.7376C95.2715 69.5799 96.0365 69.287 96.7345 68.8718C97.3973 68.48 97.9593 67.9411 98.3763 67.2976C98.8229 66.5569 99.0436 65.704 99.0118 64.8418C99.0164 64.2694 98.9178 63.7007 98.7205 63.1627C98.5377 62.6545 98.2551 62.1873 97.889 61.7879C97.5205 61.3879 97.0807 61.0588 96.5915 60.8171C96.0637 60.5501 95.4944 60.3727 94.9073 60.2924V60.2399C95.8169 59.9807 96.6316 59.4669 97.2535 58.7601C97.8625 58.0223 98.1772 57.0888 98.138 56.1364C98.1801 55.2816 97.9684 54.4332 97.5289 53.6964C97.1345 53.0897 96.5868 52.5958 95.9401 52.2639C95.2484 51.9137 94.5015 51.6831 93.7316 51.5817C92.9189 51.4711 92.0997 51.415 91.2794 51.4138H84.2885V70ZM88.4195 54.8876H91.2265C91.5551 54.8893 91.8829 54.9192 92.2063 54.9768C92.5206 55.031 92.8244 55.1337 93.1066 55.2811C93.3711 55.4207 93.5953 55.6248 93.758 55.8741C93.935 56.1608 94.0217 56.4933 94.007 56.8291C94.0163 57.1577 93.9397 57.4831 93.7845 57.7736C93.6413 58.0298 93.4355 58.2462 93.1861 58.4033C92.9317 58.5653 92.6501 58.6808 92.3546 58.7444C92.0452 58.8135 91.729 58.8487 91.4118 58.8493H88.3719L88.4195 54.8876ZM88.4195 62.3126H91.5443C91.9075 62.3144 92.2703 62.3407 92.63 62.3913C92.9944 62.4405 93.3506 62.5376 93.6892 62.6799C94.0153 62.8124 94.3029 63.0234 94.526 63.2939C94.7538 63.596 94.8697 63.9665 94.8544 64.3433C94.8678 64.7006 94.7817 65.0546 94.6054 65.3666C94.4431 65.6398 94.2204 65.873 93.954 66.0487C93.6855 66.2259 93.3853 66.3506 93.0695 66.416C92.751 66.4841 92.4262 66.5193 92.1003 66.521H88.393L88.4195 62.3126Z" fill="url(#paint0_linear_487_605)"/>
<defs>
<linearGradient id="paint0_linear_487_605" x1="0.985352" y1="35" x2="98.9853" y2="35" gradientUnits="userSpaceOnUse">
<stop stop-color="#90CEA1"/>
<stop offset="0.56" stop-color="#3CBEC9"/>
<stop offset="1" stop-color="#00B3E5"/>
</linearGradient>
</defs>
</svg>
