<svg width="72" height="50" viewBox="0 0 72 50" fill="none" xmlns="http://www.w3.org/2000/svg">
<g clip-path="url(#clip0_469_972)">
<path d="M70.2926 7.79853C69.4626 4.73113 67.0664 2.33501 63.999 1.50498C58.4808 0 36.2709 0 36.2709 0C36.2709 0 14.0611 0.0456055 8.54284 1.55058C5.47544 2.38061 3.07932 4.77673 2.2493 7.84413C0.580138 17.6493 -0.0674587 32.5896 2.2949 42.0026C3.12493 45.07 5.52105 47.4661 8.58845 48.2961C14.1067 49.8011 36.3165 49.8011 36.3165 49.8011C36.3165 49.8011 58.5264 49.8011 64.0446 48.2961C67.112 47.4661 69.5082 45.07 70.3382 42.0026C72.0985 32.1837 72.6413 17.2525 70.2926 7.79853Z" fill="#FAFAFA"/>
<path d="M29.2021 35.5723L47.6267 24.9007L29.2021 14.229V35.5723Z" fill="#0A0A0A"/>
</g>
<defs>
<clipPath id="clip0_469_972">
<rect width="71.1111" height="50" fill="white" transform="translate(0.751953)"/>
</clipPath>
</defs>
</svg>
